# xmcd CD database file
#
# Track frame offsets:
#	150
#	15787
#	29001
#	47861
#	60753
#	93148
#	109136
#	126559
#	151498
#	168333
#	186417
#
# Disc length: 2760 seconds
#
# Revision: 0
# Processed by: cddbd v1.5.2PL0 Copyright (c) Steve Scherf et al.
# Submitted via: jetAudio 7
#
DISCID=880ac60b
DTITLE=未知艺术家 - 未知唱片集
DYEAR=1900
DGENRE=未知流派
TTITLE0=曲目 1
TTITLE1=曲目 2
TTITLE2=曲目 3
TTITLE3=曲目 4
TTITLE4=曲目 5
TTITLE5=曲目 6
TTITLE6=曲目 7
TTITLE7=曲目 8
TTITLE8=曲目 9
TTITLE9=曲目 10
TTITLE10=曲目 11
EXTD=
EXTT0=
EXTT1=
EXTT2=
EXTT3=
EXTT4=
EXTT5=
EXTT6=
EXTT7=
EXTT8=
EXTT9=
EXTT10=
PLAYORDER=
